<?xml version="1.0" encoding="UTF-8" standalone="no"?>
<!-- Generator: Adobe Illustrator 24.2.1, SVG Export Plug-In . SVG Version: 6.00 Build 0)  -->

<svg
   version="1.1"
   id="Layer_1"
   x="0px"
   y="0px"
   viewBox="0 0 356.99593 181.35288"
   xml:space="preserve"
   sodipodi:docname="GHX_logo.svg"
   inkscape:version="1.1.1 (c3084ef, 2021-09-22)"
   width="356.99594"
   height="181.35289"
   xmlns:inkscape="http://www.inkscape.org/namespaces/inkscape"
   xmlns:sodipodi="http://sodipodi.sourceforge.net/DTD/sodipodi-0.dtd"
   xmlns="http://www.w3.org/2000/svg"
   xmlns:svg="http://www.w3.org/2000/svg"><defs
   id="defs121" /><sodipodi:namedview
   id="namedview119"
   pagecolor="#ffffff"
   bordercolor="#666666"
   borderopacity="1.0"
   inkscape:pageshadow="2"
   inkscape:pageopacity="0.0"
   inkscape:pagecheckerboard="0"
   showgrid="false"
   inkscape:zoom="1.1607983"
   inkscape:cx="178.7563"
   inkscape:cy="90.885731"
   inkscape:window-width="1312"
   inkscape:window-height="917"
   inkscape:window-x="0"
   inkscape:window-y="25"
   inkscape:window-maximized="0"
   inkscape:current-layer="Layer_1" />
<style
   type="text/css"
   id="style90"><![CDATA[
.st0 {
  fill:#e2e2e4;
}
.st1 {
  fill:#7b10ff;
}
.st2 {
  fill:#ffffff;
}
]]></style>
<g
   id="g116"
   transform="translate(-242.45,-206.97711)">
	<path
   class="st0"
   d="m 347.56,234.41 -21.8,-12.59 c -1.01,-0.58 -2.24,-0.58 -3.24,0 -1,0.58 -1.62,1.65 -1.62,2.81 v 4.36 h -56.88 c -11.89,0 -21.57,9.68 -21.57,21.57 v 72.19 6.31 28.01 c 0,11.9 9.68,21.57 21.57,21.57 h 24.89 9.98 24.34 c 11.9,0 21.57,-9.68 21.57,-21.57 v -4.23 -30.64 -3.69 c 0,-11.89 -9.68,-21.57 -21.57,-21.57 h -16.64 c -0.28,-0.55 -0.59,-1.09 -0.96,-1.6 -1.88,-2.62 -4.67,-4.35 -7.86,-4.87 -3.19,-0.52 -6.39,0.23 -9,2.11 -2.62,1.88 -4.35,4.67 -4.87,7.86 -1.08,6.57 3.4,12.8 9.97,13.87 1.03,0.17 2.06,0.2 3.07,0.11 2.12,-0.19 4.15,-0.95 5.93,-2.22 1.63,-1.17 2.92,-2.7 3.78,-4.45 h 16.58 c 5.93,0 10.76,4.83 10.76,10.76 v 3.69 30.64 4.23 c 0,5.93 -4.83,10.76 -10.76,10.76 h -24.34 -9.98 -24.89 c -5.93,0 -10.76,-4.83 -10.76,-10.76 v -28.01 -6.31 -72.19 c 0,-5.93 4.83,-10.76 10.76,-10.76 h 56.88 v 10.01 c 0,1.16 0.62,2.23 1.62,2.81 0.5,0.29 1.06,0.44 1.62,0.44 0.56,0 1.12,-0.14 1.62,-0.43 l 21.8,-12.59 c 1,-0.58 1.62,-1.65 1.62,-2.81 0,-1.17 -0.62,-2.24 -1.62,-2.82 z"
   id="path92" />
	<path
   class="st0"
   d="m 487.68,292.23 h -17.32 v -51.19 c 2.25,-1.12 4.09,-2.9 5.29,-5.17 1.5,-2.86 1.8,-6.13 0.84,-9.21 -0.96,-3.08 -3.06,-5.6 -5.91,-7.11 -2.85,-1.5 -6.12,-1.8 -9.21,-0.84 -3.08,0.96 -5.6,3.06 -7.11,5.92 -1.5,2.86 -1.8,6.13 -0.84,9.21 0.96,3.08 3.06,5.6 5.91,7.11 0.07,0.04 0.14,0.06 0.22,0.1 v 51.19 h -65.64 v -62.39 c 2.25,-1.12 4.09,-2.9 5.29,-5.17 1.5,-2.86 1.8,-6.13 0.84,-9.21 -1.98,-6.36 -8.76,-9.92 -15.12,-7.95 -3.08,0.96 -5.6,3.06 -7.11,5.91 -1.5,2.86 -1.8,6.13 -0.84,9.21 0.96,3.08 3.06,5.61 5.91,7.11 0.07,0.04 0.15,0.06 0.22,0.1 v 62.39 h -17.52 c -2.99,0 -5.41,2.42 -5.41,5.41 0,2.99 2.42,5.41 5.41,5.41 h 17.52 v 62.39 c -2.25,1.12 -4.09,2.9 -5.29,5.17 -1.5,2.86 -1.8,6.13 -0.84,9.21 0.96,3.08 3.06,5.61 5.91,7.11 1.76,0.92 3.68,1.39 5.61,1.39 1.2,0 2.42,-0.18 3.6,-0.55 3.08,-0.96 5.6,-3.06 7.11,-5.91 1.5,-2.86 1.8,-6.13 0.84,-9.21 -1.01,-3.26 -3.29,-5.78 -6.13,-7.2 v -62.39 h 65.64 v 73.34 c 0,2.99 2.42,5.41 5.41,5.41 2.99,0 5.41,-2.42 5.41,-5.41 v -73.34 h 17.32 c 2.99,0 5.41,-2.42 5.41,-5.41 -0.01,-3.01 -2.43,-5.43 -5.42,-5.43 z m -17.32,-63.32 c 0.23,0.91 0.23,1.83 0,2.72 z m -10.81,2.68 c -0.23,-0.9 -0.23,-1.83 0,-2.72 z"
   id="path94" />
	<path
   class="st1"
   d="m 467.56,225.3 c -0.82,-0.43 -1.7,-0.65 -2.6,-0.65 -0.56,0 -1.12,0.08 -1.67,0.26 -1.43,0.44 -2.6,1.41 -3.29,2.74 -0.69,1.32 -0.83,2.84 -0.39,4.26 0.44,1.43 1.41,2.6 2.74,3.29 1.32,0.7 2.84,0.84 4.26,0.39 1.43,-0.44 2.6,-1.41 3.29,-2.74 0.7,-1.32 0.83,-2.84 0.39,-4.26 -0.44,-1.43 -1.41,-2.6 -2.73,-3.29 z"
   id="path96" />
	<g
   id="g106">
		<path
   class="st0"
   d="m 597.18,349.87 c -1.88,-2.62 -4.67,-4.35 -7.86,-4.87 -1.4,-0.23 -2.8,-0.2 -4.15,0.05 l -35.76,-47.21 28.2,-40.3 c 0.33,0.05 0.65,0.12 0.98,0.14 1.02,0.06 2.06,-0.01 3.11,-0.23 6.53,-1.34 10.75,-7.73 9.42,-14.26 -1.34,-6.53 -7.73,-10.75 -14.26,-9.42 -3.16,0.65 -5.88,2.49 -7.66,5.18 -1.78,2.69 -2.4,5.92 -1.76,9.08 0.25,1.22 0.7,2.34 1.27,3.37 l -26.16,37.37 -30.03,-39.65 c -1.8,-2.38 -5.19,-2.85 -7.57,-1.05 -2.38,1.8 -2.85,5.19 -1.04,7.57 l 32.13,42.43 -33.09,47.27 c -1.49,-0.27 -3.04,-0.26 -4.57,0.05 -6.53,1.34 -10.75,7.73 -9.42,14.26 1.12,5.48 5.81,9.34 11.15,9.64 1.02,0.06 2.07,-0.01 3.11,-0.23 3.16,-0.65 5.88,-2.49 7.66,-5.18 1.78,-2.69 2.4,-5.92 1.76,-9.08 -0.21,-1.05 -0.57,-2.04 -1.04,-2.98 l 31.29,-44.71 33.64,44.42 c -0.52,1.06 -0.9,2.21 -1.09,3.41 -1.08,6.57 3.4,12.8 9.97,13.87 1.03,0.17 2.06,0.2 3.07,0.11 2.12,-0.19 4.15,-0.95 5.93,-2.22 2.62,-1.88 4.35,-4.67 4.87,-7.86 0.53,-3.15 -0.22,-6.35 -2.1,-8.97 z"
   id="path98" />
		<path
   class="st1"
   d="m 582.36,240.95 c -0.83,-0.55 -1.78,-0.86 -2.75,-0.92 -0.48,-0.03 -0.97,0.01 -1.45,0.11 -1.46,0.3 -2.72,1.15 -3.54,2.4 -0.82,1.25 -1.11,2.74 -0.81,4.2 0.62,3.02 3.58,4.98 6.6,4.36 1.46,-0.3 2.72,-1.15 3.55,-2.4 0.82,-1.25 1.11,-2.74 0.81,-4.2 -0.31,-1.47 -1.16,-2.73 -2.41,-3.55 z"
   id="path100" />
		<path
   class="st2"
   d="m 503.89,352.58 c -0.83,-0.55 -1.78,-0.86 -2.75,-0.92 -0.48,-0.03 -0.96,0.01 -1.45,0.11 -3.02,0.62 -4.98,3.58 -4.36,6.6 0.3,1.46 1.15,2.72 2.4,3.55 1.25,0.83 2.74,1.12 4.2,0.81 1.46,-0.3 2.72,-1.15 3.54,-2.4 0.82,-1.25 1.11,-2.74 0.81,-4.2 -0.29,-1.47 -1.14,-2.73 -2.39,-3.55 z"
   id="path102" />
		<path
   class="st2"
   d="m 588.27,351.4 c -0.48,-0.08 -0.96,-0.09 -1.42,-0.05 -0.98,0.09 -1.92,0.44 -2.74,1.03 -1.21,0.87 -2.02,2.16 -2.26,3.64 -0.24,1.47 0.11,2.95 0.98,4.17 0.87,1.21 2.16,2.01 3.64,2.25 1.47,0.24 2.95,-0.11 4.17,-0.98 1.21,-0.87 2.02,-2.16 2.26,-3.64 0.24,-1.47 -0.11,-2.95 -0.98,-4.17 -0.88,-1.21 -2.17,-2.01 -3.65,-2.25 z"
   id="path104" />
	</g>
	<path
   class="st2"
   d="m 388.5,213.45 c -0.55,0 -1.11,0.08 -1.66,0.25 -1.43,0.44 -2.6,1.42 -3.29,2.74 -0.7,1.32 -0.83,2.84 -0.39,4.26 0.44,1.43 1.41,2.6 2.74,3.29 1.32,0.7 2.84,0.84 4.26,0.39 v 0 c 1.43,-0.44 2.6,-1.41 3.29,-2.74 0.69,-1.32 0.83,-2.84 0.39,-4.26 -0.74,-2.39 -2.95,-3.93 -5.34,-3.93 z"
   id="path108" />
	<path
   class="st1"
   d="m 388.5,370.63 c -0.55,0 -1.11,0.08 -1.66,0.25 -1.43,0.44 -2.6,1.42 -3.29,2.74 -0.7,1.32 -0.83,2.83 -0.39,4.26 0.44,1.43 1.41,2.6 2.74,3.29 1.32,0.7 2.84,0.84 4.26,0.39 v 0 c 1.43,-0.44 2.6,-1.41 3.29,-2.74 0.69,-1.32 0.83,-2.84 0.39,-4.26 -0.74,-2.39 -2.95,-3.93 -5.34,-3.93 z"
   id="path110" />
	<path
   class="st2"
   d="m 296.71,296.89 c -0.48,-0.08 -0.96,-0.09 -1.42,-0.05 -0.98,0.09 -1.92,0.44 -2.74,1.03 -1.21,0.87 -2.02,2.16 -2.26,3.64 -0.24,1.47 0.11,2.95 0.98,4.17 0.87,1.21 2.16,2.01 3.64,2.25 1.47,0.24 2.95,-0.11 4.17,-0.98 1.21,-0.87 2.02,-2.16 2.26,-3.64 0.24,-1.47 -0.11,-2.95 -0.98,-4.17 -0.88,-1.21 -2.18,-2.01 -3.65,-2.25 z"
   id="path112" />
	<polygon
   class="st1"
   points="327.38,230.25 327.38,244.19 339.45,237.22 "
   id="polygon114" />
</g>
<path
   style="fill:#000000;fill-opacity:1;stroke-width:0.861476"
   d=""
   id="path24312" /><path
   style="fill:#000000;fill-opacity:1;stroke-width:0.861476"
   d="m 143.72387,16.463937 c -2.50125,-1.240002 -3.26424,-6.5248975 -1.19048,-8.245964 3.29485,-2.7344858 8.4403,-0.4403795 8.4403,3.763123 0,4.13064 -3.54219,6.320909 -7.24982,4.482841 z"
   id="path24351" /><path
   style="fill:#000000;fill-opacity:1;stroke-width:0.861476"
   d="m 255.18862,154.15538 c -3.73082,-2.61317 -1.5265,-8.99665 3.10668,-8.99665 2.34443,0 5.31639,2.88948 5.31639,5.16885 0,2.13545 -2.92091,5.16886 -4.97717,5.16886 -0.8422,0 -2.39285,-0.60348 -3.4459,-1.34106 z"
   id="path24390" /><path
   style="fill:#000000;fill-opacity:1;stroke-width:0.861476"
   d="m 341.58962,153.43541 c -2.51753,-2.51754 -2.67441,-3.72445 -0.82696,-6.36205 1.49525,-2.13477 6.18966,-2.65408 7.96287,-0.88086 1.3575,1.35749 1.32877,6.27254 -0.0431,7.37007 -2.62654,2.10135 -4.90517,2.0605 -7.09284,-0.12716 z"
   id="path24429" /><path
   style="fill:#000000;fill-opacity:1;stroke-width:0.861476"
   d="m 49.668395,98.786551 c -0.784153,-0.866478 -1.425732,-2.417135 -1.425732,-3.445904 0,-2.344434 2.889483,-5.316392 5.168857,-5.316392 2.33793,0 5.168856,2.993709 5.168856,5.466076 0,4.280717 -6.009508,6.503419 -8.911981,3.29622 z"
   id="path24468" /></svg>
