<svg xmlns="http://www.w3.org/2000/svg" xmlns:xlink="http://www.w3.org/1999/xlink" viewBox="0 0 160 160"><defs><linearGradient id="linear-gradient" x1="78.081" y1="104.19504" x2="120.85591" y2="82.35594" gradientUnits="userSpaceOnUse"><stop offset="0" stop-color="#fff" stop-opacity="0"/><stop offset="1" stop-color="#fff"/></linearGradient><linearGradient id="linear-gradient-2" x1="90.60299" y1="68.17747" x2="84.86066" y2="81.87072" gradientUnits="userSpaceOnUse"><stop offset="0" stop-color="#fff" stop-opacity="0"/><stop offset="0.1149" stop-color="#fff" stop-opacity="0.21335"/><stop offset="0.2417" stop-color="#fff" stop-opacity="0.41956"/><stop offset="0.3705" stop-color="#fff" stop-opacity="0.59746"/><stop offset="0.49869" stop-color="#fff" stop-opacity="0.74273"/><stop offset="0.62605" stop-color="#fff" stop-opacity="0.85541"/><stop offset="0.75248" stop-color="#fff" stop-opacity="0.93576"/><stop offset="0.87762" stop-color="#fff" stop-opacity="0.98392"/><stop offset="1" stop-color="#fff"/></linearGradient><linearGradient id="linear-gradient-3" x1="82.94609" y1="113.31731" x2="101.02131" y2="89.37794" gradientUnits="userSpaceOnUse"><stop offset="0" stop-color="#fff" stop-opacity="0"/><stop offset="0.01567" stop-color="#fff" stop-opacity="0.03243"/><stop offset="0.13226" stop-color="#fff" stop-opacity="0.25629"/><stop offset="0.25217" stop-color="#fff" stop-opacity="0.45476"/><stop offset="0.37273" stop-color="#fff" stop-opacity="0.62223"/><stop offset="0.49412" stop-color="#fff" stop-opacity="0.75887"/><stop offset="0.61653" stop-color="#fff" stop-opacity="0.86476"/><stop offset="0.74051" stop-color="#fff" stop-opacity="0.94015"/><stop offset="0.86702" stop-color="#fff" stop-opacity="0.98517"/><stop offset="1" stop-color="#fff"/></linearGradient><linearGradient id="linear-gradient-4" x1="90.86566" y1="45.32991" x2="115.48423" y2="63.37821" gradientUnits="userSpaceOnUse"><stop offset="0" stop-color="#fff" stop-opacity="0"/><stop offset="0.08485" stop-color="#fff" stop-opacity="0.03621"/><stop offset="0.22497" stop-color="#fff" stop-opacity="0.13442"/><stop offset="0.40304" stop-color="#fff" stop-opacity="0.29452"/><stop offset="0.6121" stop-color="#fff" stop-opacity="0.51669"/><stop offset="0.84432" stop-color="#fff" stop-opacity="0.79641"/><stop offset="1" stop-color="#fff"/></linearGradient><linearGradient id="linear-gradient-5" x1="30" y1="123.5" x2="126" y2="123.5" xlink:href="#linear-gradient"/><linearGradient id="linear-gradient-6" x1="46" y1="114.5" x2="79" y2="114.5" gradientUnits="userSpaceOnUse"><stop offset="0" stop-color="#fff" stop-opacity="0"/><stop offset="1" stop-color="#fff" stop-opacity="0.5"/></linearGradient><linearGradient id="linear-gradient-7" x1="35" y1="105.5" x2="53" y2="105.5" xlink:href="#linear-gradient-6"/><linearGradient id="linear-gradient-8" x1="44" y1="95.5" x2="60" y2="95.5" xlink:href="#linear-gradient-6"/><linearGradient id="linear-gradient-9" x1="56" y1="105.5" x2="70" y2="105.5" xlink:href="#linear-gradient-6"/><linearGradient id="linear-gradient-10" x1="93" y1="86" x2="103" y2="86" xlink:href="#linear-gradient"/><linearGradient id="linear-gradient-11" x1="97" y1="92" x2="103" y2="92" xlink:href="#linear-gradient"/></defs><g id="backdrop"><circle cx="80" cy="80" r="80" fill="#4353ff"/></g><g id="icons"><path d="M92.48528,119.48528,60.17157,87.17157A4,4,0,0,1,59,84.34315v-.6863a4,4,0,0,1,1.17157-2.82842L77.29289,63.70711a1,1,0,0,1,1.41422,0L80,65v0A11.99994,11.99994,0,0,0,91.99994,77H99a2,2,0,0,1,2,2v11.7797a16,16,0,0,0,5.414,11.9974L117,112l6.65079,1.478A3,3,0,0,1,126,116.40651V117a6,6,0,0,1-6,6H100.97056A12,12,0,0,1,92.48528,119.48528Z" fill="url(#linear-gradient)"/><path d="M77,64l.29289-.29289a1,1,0,0,1,1.41422,0L80,65v0A11.99994,11.99994,0,0,0,91.99994,77H99a2,2,0,0,1,2,2v1L91,80A14,14,0,0,1,77,66Z" fill="url(#linear-gradient-2)"/><path d="M92.48528,119.48528,60.17157,87.17157A4,4,0,0,1,59,84.34315v-.6863a4,4,0,0,1,1.17157-2.82842L62,79l34.65685,34.65683A8,8,0,0,0,102.31372,116L113,116l4-4,6.65079,1.478A3,3,0,0,1,126,116.40651V117a6,6,0,0,1-6,6H100.97056A12,12,0,0,1,92.48528,119.48528Z" fill="url(#linear-gradient-3)"/><path d="M126,47,105.74341,66.25659A41.3378,41.3378,0,0,0,98,77v0H92A12,12,0,0,1,80,65v0l4.24924-3.77709a35.70566,35.70566,0,0,0,7.75234-9.82583L104,28h3a19,19,0,0,1,19,19Z" fill="url(#linear-gradient-4)"/><line x1="125.5" y1="123.5" x2="30.5" y2="123.5" fill="none" stroke-linecap="round" stroke-linejoin="round" stroke="url(#linear-gradient-5)"/><line x1="78.5" y1="114.5" x2="46.5" y2="114.5" fill="none" stroke-linecap="round" stroke-miterlimit="10" stroke="url(#linear-gradient-6)"/><line x1="52.5" y1="105.5" x2="35.5" y2="105.5" fill="none" stroke-linecap="round" stroke-miterlimit="10" stroke="url(#linear-gradient-7)"/><line x1="59.5" y1="95.5" x2="44.5" y2="95.5" fill="none" stroke-linecap="round" stroke-miterlimit="10" stroke="url(#linear-gradient-8)"/><line x1="56.5" y1="105.5" x2="69.5" y2="105.5" fill="none" stroke-linecap="round" stroke-miterlimit="10" stroke="url(#linear-gradient-9)"/><line x1="102" y1="86" x2="94" y2="86" fill="none" stroke-linecap="round" stroke-linejoin="round" stroke-width="2" stroke="url(#linear-gradient-10)"/><line x1="102" y1="92" x2="98" y2="92" fill="none" stroke-linecap="round" stroke-linejoin="round" stroke-width="2" stroke="url(#linear-gradient-11)"/></g></svg>