<?xml version="1.0" encoding="utf-8"?>
<!-- Generator: Adobe Illustrator 24.2.1, SVG Export Plug-In . SVG Version: 6.00 Build 0)  -->
<svg version="1.1" id="Layer_1" xmlns="http://www.w3.org/2000/svg" xmlns:xlink="http://www.w3.org/1999/xlink" x="0px" y="0px"
	 viewBox="0 0 841.89 595.28" style="enable-background:new 0 0 841.89 595.28;" xml:space="preserve">
<style type="text/css">
	.st0{fill:#1D1D1B;}
	.st1{fill:#7B10FF;}
	.st2{fill:#FFFFFF;}
</style>
<g>
	<path class="st0" d="M347.56,234.41l-21.8-12.59c-1.01-0.58-2.24-0.58-3.24,0c-1,0.58-1.62,1.65-1.62,2.81v4.36h-56.88
		c-11.89,0-21.57,9.68-21.57,21.57v72.19v6.31v28.01c0,11.9,9.68,21.57,21.57,21.57h24.89h9.98h24.34c11.9,0,21.57-9.68,21.57-21.57
		v-4.23v-30.64v-3.69c0-11.89-9.68-21.57-21.57-21.57h-16.64c-0.28-0.55-0.59-1.09-0.96-1.6c-1.88-2.62-4.67-4.35-7.86-4.87
		c-3.19-0.52-6.39,0.23-9,2.11c-2.62,1.88-4.35,4.67-4.87,7.86c-1.08,6.57,3.4,12.8,9.97,13.87c1.03,0.17,2.06,0.2,3.07,0.11
		c2.12-0.19,4.15-0.95,5.93-2.22c1.63-1.17,2.92-2.7,3.78-4.45h16.58c5.93,0,10.76,4.83,10.76,10.76v3.69v30.64v4.23
		c0,5.93-4.83,10.76-10.76,10.76h-24.34h-9.98h-24.89c-5.93,0-10.76-4.83-10.76-10.76v-28.01v-6.31v-72.19
		c0-5.93,4.83-10.76,10.76-10.76h56.88v10.01c0,1.16,0.62,2.23,1.62,2.81c0.5,0.29,1.06,0.44,1.62,0.44c0.56,0,1.12-0.14,1.62-0.43
		l21.8-12.59c1-0.58,1.62-1.65,1.62-2.81C349.18,236.06,348.56,234.99,347.56,234.41z"/>
	<path class="st0" d="M487.68,292.23h-17.32v-51.19c2.25-1.12,4.09-2.9,5.29-5.17c1.5-2.86,1.8-6.13,0.84-9.21
		c-0.96-3.08-3.06-5.6-5.91-7.11c-2.85-1.5-6.12-1.8-9.21-0.84c-3.08,0.96-5.6,3.06-7.11,5.92c-1.5,2.86-1.8,6.13-0.84,9.21
		c0.96,3.08,3.06,5.6,5.91,7.11c0.07,0.04,0.14,0.06,0.22,0.1v51.19h-65.64v-62.39c2.25-1.12,4.09-2.9,5.29-5.17
		c1.5-2.86,1.8-6.13,0.84-9.21c-1.98-6.36-8.76-9.92-15.12-7.95c-3.08,0.96-5.6,3.06-7.11,5.91c-1.5,2.86-1.8,6.13-0.84,9.21
		c0.96,3.08,3.06,5.61,5.91,7.11c0.07,0.04,0.15,0.06,0.22,0.1v62.39h-17.52c-2.99,0-5.41,2.42-5.41,5.41
		c0,2.99,2.42,5.41,5.41,5.41h17.52v62.39c-2.25,1.12-4.09,2.9-5.29,5.17c-1.5,2.86-1.8,6.13-0.84,9.21
		c0.96,3.08,3.06,5.61,5.91,7.11c1.76,0.92,3.68,1.39,5.61,1.39c1.2,0,2.42-0.18,3.6-0.55c3.08-0.96,5.6-3.06,7.11-5.91
		c1.5-2.86,1.8-6.13,0.84-9.21c-1.01-3.26-3.29-5.78-6.13-7.2v-62.39h65.64v73.34c0,2.99,2.42,5.41,5.41,5.41
		c2.99,0,5.41-2.42,5.41-5.41v-73.34h17.32c2.99,0,5.41-2.42,5.41-5.41C493.09,294.65,490.67,292.23,487.68,292.23z M470.36,228.91
		c0.23,0.91,0.23,1.83,0,2.72V228.91z M459.55,231.59c-0.23-0.9-0.23-1.83,0-2.72V231.59z"/>
	<path class="st1" d="M467.56,225.3c-0.82-0.43-1.7-0.65-2.6-0.65c-0.56,0-1.12,0.08-1.67,0.26c-1.43,0.44-2.6,1.41-3.29,2.74
		c-0.69,1.32-0.83,2.84-0.39,4.26c0.44,1.43,1.41,2.6,2.74,3.29c1.32,0.7,2.84,0.84,4.26,0.39c1.43-0.44,2.6-1.41,3.29-2.74
		c0.7-1.32,0.83-2.84,0.39-4.26C469.85,227.16,468.88,225.99,467.56,225.3z"/>
	<g>
		<path class="st0" d="M597.18,349.87c-1.88-2.62-4.67-4.35-7.86-4.87c-1.4-0.23-2.8-0.2-4.15,0.05l-35.76-47.21l28.2-40.3
			c0.33,0.05,0.65,0.12,0.98,0.14c1.02,0.06,2.06-0.01,3.11-0.23c6.53-1.34,10.75-7.73,9.42-14.26c-1.34-6.53-7.73-10.75-14.26-9.42
			c-3.16,0.65-5.88,2.49-7.66,5.18c-1.78,2.69-2.4,5.92-1.76,9.08c0.25,1.22,0.7,2.34,1.27,3.37l-26.16,37.37l-30.03-39.65
			c-1.8-2.38-5.19-2.85-7.57-1.05c-2.38,1.8-2.85,5.19-1.04,7.57l32.13,42.43l-33.09,47.27c-1.49-0.27-3.04-0.26-4.57,0.05
			c-6.53,1.34-10.75,7.73-9.42,14.26c1.12,5.48,5.81,9.34,11.15,9.64c1.02,0.06,2.07-0.01,3.11-0.23c3.16-0.65,5.88-2.49,7.66-5.18
			c1.78-2.69,2.4-5.92,1.76-9.08c-0.21-1.05-0.57-2.04-1.04-2.98l31.29-44.71l33.64,44.42c-0.52,1.06-0.9,2.21-1.09,3.41
			c-1.08,6.57,3.4,12.8,9.97,13.87c1.03,0.17,2.06,0.2,3.07,0.11c2.12-0.19,4.15-0.95,5.93-2.22c2.62-1.88,4.35-4.67,4.87-7.86
			C599.81,355.69,599.06,352.49,597.18,349.87z"/>
		<path class="st1" d="M582.36,240.95c-0.83-0.55-1.78-0.86-2.75-0.92c-0.48-0.03-0.97,0.01-1.45,0.11c-1.46,0.3-2.72,1.15-3.54,2.4
			c-0.82,1.25-1.11,2.74-0.81,4.2c0.62,3.02,3.58,4.98,6.6,4.36c1.46-0.3,2.72-1.15,3.55-2.4c0.82-1.25,1.11-2.74,0.81-4.2
			C584.46,243.03,583.61,241.77,582.36,240.95z"/>
		<path class="st2" d="M503.89,352.58c-0.83-0.55-1.78-0.86-2.75-0.92c-0.48-0.03-0.96,0.01-1.45,0.11
			c-3.02,0.62-4.98,3.58-4.36,6.6c0.3,1.46,1.15,2.72,2.4,3.55c1.25,0.83,2.74,1.12,4.2,0.81c1.46-0.3,2.72-1.15,3.54-2.4
			c0.82-1.25,1.11-2.74,0.81-4.2C505.99,354.66,505.14,353.4,503.89,352.58z"/>
		<path class="st2" d="M588.27,351.4c-0.48-0.08-0.96-0.09-1.42-0.05c-0.98,0.09-1.92,0.44-2.74,1.03
			c-1.21,0.87-2.02,2.16-2.26,3.64c-0.24,1.47,0.11,2.95,0.98,4.17c0.87,1.21,2.16,2.01,3.64,2.25c1.47,0.24,2.95-0.11,4.17-0.98
			c1.21-0.87,2.02-2.16,2.26-3.64c0.24-1.47-0.11-2.95-0.98-4.17C591.04,352.44,589.75,351.64,588.27,351.4z"/>
	</g>
	<path class="st2" d="M388.5,213.45c-0.55,0-1.11,0.08-1.66,0.25c-1.43,0.44-2.6,1.42-3.29,2.74c-0.7,1.32-0.83,2.84-0.39,4.26
		c0.44,1.43,1.41,2.6,2.74,3.29c1.32,0.7,2.84,0.84,4.26,0.39v0c1.43-0.44,2.6-1.41,3.29-2.74c0.69-1.32,0.83-2.84,0.39-4.26
		C393.1,214.99,390.89,213.45,388.5,213.45z"/>
	<path class="st1" d="M388.5,370.63c-0.55,0-1.11,0.08-1.66,0.25c-1.43,0.44-2.6,1.42-3.29,2.74c-0.7,1.32-0.83,2.83-0.39,4.26
		c0.44,1.43,1.41,2.6,2.74,3.29c1.32,0.7,2.84,0.84,4.26,0.39v0c1.43-0.44,2.6-1.41,3.29-2.74c0.69-1.32,0.83-2.84,0.39-4.26
		C393.1,372.17,390.89,370.63,388.5,370.63z"/>
	<path class="st2" d="M296.71,296.89c-0.48-0.08-0.96-0.09-1.42-0.05c-0.98,0.09-1.92,0.44-2.74,1.03
		c-1.21,0.87-2.02,2.16-2.26,3.64c-0.24,1.47,0.11,2.95,0.98,4.17c0.87,1.21,2.16,2.01,3.64,2.25c1.47,0.24,2.95-0.11,4.17-0.98
		c1.21-0.87,2.02-2.16,2.26-3.64c0.24-1.47-0.11-2.95-0.98-4.17C299.48,297.93,298.18,297.13,296.71,296.89z"/>
	<polygon class="st1" points="327.38,244.19 339.45,237.22 327.38,230.25 	"/>
</g>
</svg>
